<svg xmlns="http://www.w3.org/2000/svg" viewBox="0 0 40 40"><title>user</title><path d="M40,37.48v1.67a0.79,0.79,0,0,1-.83.83H0.83a0.82,0.82,0,0,1-.6-0.23A0.81,0.81,0,0,1,0,39.15V37.48a5.4,5.4,0,0,1,1.55-3.91,11,11,0,0,1,3.75-2.5q2.2-.9,4.4-1.71a12.62,12.62,0,0,0,3.75-2.11A3.92,3.92,0,0,0,15,24.15c-0.12-.12-0.3-0.32-0.53-0.58a16.09,16.09,0,0,1-1.2-1.76,22.41,22.41,0,0,1-1.53-2.89,21.34,21.34,0,0,1-1.2-4A23,23,0,0,1,10,10a9.63,9.63,0,0,1,2.94-7.06A9.63,9.63,0,0,1,20,0a9.63,9.63,0,0,1,7.06,2.94A9.63,9.63,0,0,1,30,10a23.93,23.93,0,0,1-.51,5,19.21,19.21,0,0,1-1.25,4,29.85,29.85,0,0,1-1.48,2.83,14.32,14.32,0,0,1-1.25,1.83L25,24.15a3.92,3.92,0,0,0,1.55,3.1,12.62,12.62,0,0,0,3.75,2.11q2.2,0.81,4.4,1.71a11,11,0,0,1,3.75,2.5A5.41,5.41,0,0,1,40,37.48Z" transform="translate(0 0.02)"/></svg>